<svg id="Capa_1" data-name="Capa 1" xmlns="http://www.w3.org/2000/svg" viewBox="0 0 383.51 100.24"><defs><style>.cls-1{opacity:0.5;}</style></defs><title>logo-light</title><path d="M175.85,449.25a1.42,1.42,0,0,1-1.42-1.41V417.06c0-5-.54-8.69-1.6-10.83-.91-1.85-2.68-2.74-5.41-2.74a9.85,9.85,0,0,0-9.58,6,22.77,22.77,0,0,0-1.73,6.72v31.63a1.41,1.41,0,0,1-1.42,1.41H141.77a1.41,1.41,0,0,1-1.41-1.41V416.47c0-4.57-.59-8-1.76-10.12-1-1.89-2.89-2.81-5.7-2.81a10.5,10.5,0,0,0-6.24,1.81,11.68,11.68,0,0,0-4,4.73,53.46,53.46,0,0,0-1.07,11.47v26.29a1.42,1.42,0,0,1-1.42,1.41H107.3a1.42,1.42,0,0,1-1.42-1.41v-54.2a1.43,1.43,0,0,1,1.42-1.42h10.46a1.42,1.42,0,0,1,1.38,1.12l.88,4.12.09-.09a21,21,0,0,1,2.69-2.32,18.52,18.52,0,0,1,3.68-2.17,24.31,24.31,0,0,1,4.73-1.42,29.47,29.47,0,0,1,5.93-.57c4.57,0,8.31,1,11.12,2.86a17.5,17.5,0,0,1,4.85,4.72,21,21,0,0,1,6.73-5.17,24.65,24.65,0,0,1,10.93-2.41c6.63,0,11.6,1.95,14.78,5.79s4.69,9.33,4.69,16.54v34.62a1.42,1.42,0,0,1-1.42,1.41Z" transform="translate(-105.88 -350.05)"/><path d="M226.6,450.29c-9.07,0-16.26-2.68-21.36-8s-7.68-12.59-7.68-21.78c0-8.93,2.43-16.17,7.22-21.51s11.47-8.13,19.74-8.16c7.86,0,14.06,2.52,18.45,7.48s6.55,11.49,6.55,19.53c0,.57,0,1.47,0,2.73s0,2.16,0,2.75a1.42,1.42,0,0,1-1.42,1.41H213.49c.33,4,1.57,7.13,3.7,9.37,2.39,2.51,5.63,3.73,9.9,3.73a33,33,0,0,0,16.37-4.45,1.37,1.37,0,0,1,1.28-.06,1.39,1.39,0,0,1,.8,1l1.83,9.18a1.41,1.41,0,0,1-.65,1.48C241.1,448.53,234.33,450.29,226.6,450.29Zm7.86-36.47c-.19-3.35-1.07-6-2.63-7.82a8.89,8.89,0,0,0-7.25-3.05,10,10,0,0,0-7.41,3,13.39,13.39,0,0,0-3.36,7.84Z" transform="translate(-105.88 -350.05)"/><path d="M275.91,450.24c-8.2,0-14.89-1.44-19.88-4.28a1.41,1.41,0,0,1-.7-1.42l1.33-9.72a1.42,1.42,0,0,1,.76-1.07,1.43,1.43,0,0,1,.64-.15,1.35,1.35,0,0,1,.68.17,38.35,38.35,0,0,0,8,3.06,33,33,0,0,0,8.79,1.35,10.67,10.67,0,0,0,5.89-1.36,4,4,0,0,0,1.82-3.55,3.76,3.76,0,0,0-1.66-3.27,41,41,0,0,0-8.23-3.87c-1.44-.52-2.39-.87-2.82-1-5.25-2-9-4.28-11.33-6.84s-3.68-6.23-3.68-10.66c0-5.38,2-9.58,5.93-12.48s9.1-4.22,15.76-4.22a42,42,0,0,1,18.82,4,1.42,1.42,0,0,1,.71,1.75l-3.21,8.93a1.42,1.42,0,0,1-1.33.94,1.39,1.39,0,0,1-.6-.14A33.78,33.78,0,0,0,277.44,403a10.69,10.69,0,0,0-5.36,1.1,2.9,2.9,0,0,0-1.5,2.76,3,3,0,0,0,1.48,2.73,44.85,44.85,0,0,0,7.94,3.51c.15,0,.46.15,1.33.46s1.33.5,1.74.67c5.09,1.85,9,4.16,11.44,6.83a15.31,15.31,0,0,1,3.88,10.8c0,5.85-2.07,10.45-6.05,13.67S282.92,450.24,275.91,450.24Z" transform="translate(-105.88 -350.05)"/><path d="M329.27,450.29c-7.34,0-13.35-1.88-17.88-5.6s-7-9.36-7-16.58V393.64a1.43,1.43,0,0,1,1.42-1.42h13a1.43,1.43,0,0,1,1.42,1.42v34c0,3.65.72,6.28,2.15,7.81s3.78,2.26,7,2.26,5.5-.75,6.88-2.23,2.11-4.15,2.11-7.84v-34a1.42,1.42,0,0,1,1.42-1.42h12.92a1.43,1.43,0,0,1,1.42,1.42v34.47c0,7.19-2.35,12.76-7,16.56S336.61,450.29,329.27,450.29Z" transform="translate(-105.88 -350.05)"/><path d="M364.58,449.25a1.41,1.41,0,0,1-1.41-1.41v-54.2a1.42,1.42,0,0,1,1.41-1.42h10.85a1.41,1.41,0,0,1,1.39,1.14l1,5.13A18.38,18.38,0,0,1,392.55,392a26.06,26.06,0,0,1,3.66.22,1.41,1.41,0,0,1,1.21,1.42l-.2,10.8a1.43,1.43,0,0,1-.5,1.06,1.41,1.41,0,0,1-.92.34l-.21,0a25.67,25.67,0,0,0-3.88-.28c-4.34,0-7.58,1.13-9.64,3.34s-3.15,5.48-3.15,9.59v29.4a1.41,1.41,0,0,1-1.41,1.41Z" transform="translate(-105.88 -350.05)"/><path d="M417.85,450.29c-5.37,0-9.79-1.52-13.15-4.53s-5.14-7.44-5.14-13.06c0-6.07,2.06-10.66,6.1-13.65,3.88-2.85,9.72-4.67,17.38-5.42,1-.13,2.09-.26,3.28-.39s2.54-.27,4-.4l2.21-.21v-1.58c0-2.88-.63-5-1.85-6.17S427.49,403,424.8,403c-4.21,0-9.53,1.22-15.82,3.61a1.43,1.43,0,0,1-.5.09,1.3,1.3,0,0,1-.61-.14,1.41,1.41,0,0,1-.74-.83c-.05-.15-.59-1.64-1.61-4.45-1.24-3.4-1.56-4.25-1.6-4.37a1.31,1.31,0,0,1,0-1.08,1.36,1.36,0,0,1,.79-.77,53.58,53.58,0,0,1,21.27-4.21c7.64,0,13.32,1.73,16.9,5.15s5.42,9,5.42,16.44v35.36a1.41,1.41,0,0,1-1.41,1.41h-9.57a1.42,1.42,0,0,1-1.38-1.07c0-.15-.4-1.23-1-3.2l-.39-1.17a29.32,29.32,0,0,1-6.61,4.49A23.13,23.13,0,0,1,417.85,450.29Zm10.93-26.58c-5,.44-8.6,1.36-10.83,2.74-2,1.25-3,3.24-3,6.1a5.4,5.4,0,0,0,1.57,4.25,6.94,6.94,0,0,0,4.81,1.48,12.75,12.75,0,0,0,7-1.92,11.37,11.37,0,0,0,4.11-4.34v-8.6l-1.06.09Z" transform="translate(-105.88 -350.05)"/><path d="M478.85,450a29.2,29.2,0,0,1-9.72-1.39,13.41,13.41,0,0,1-6.46-4.65,18.85,18.85,0,0,1-3.21-7.36,50.29,50.29,0,0,1-.87-10.11V373.66a1.42,1.42,0,0,1,1.33-1.41l13-.84a1.44,1.44,0,0,1,1,.38,1.41,1.41,0,0,1,.45,1v53.41c0,5.67.81,8.08,1.49,9.1.86,1.3,2.72,2,5.53,2a44.83,44.83,0,0,0,6.06-.53l.2,0a1.45,1.45,0,0,1,.91.33,1.4,1.4,0,0,1,.5,1l.35,9.22a1.44,1.44,0,0,1-.39,1,1.47,1.47,0,0,1-.84.42l-1.1.23c-.79.16-1.56.31-2.28.43s-1.67.24-2.77.35A30.14,30.14,0,0,1,478.85,450Z" transform="translate(-105.88 -350.05)"/><circle class="cls-1" cx="321.01" cy="11.34" r="11.34"/></svg>